<svg id="Layer_1" data-name="Layer 1" xmlns="http://www.w3.org/2000/svg" viewBox="0 0 34 29.7"><path d="M33,10c-4.1,0-6.4,2.3-8,4.1-1.6-1.8-3.9-4.1-8-4.1a9,9,0,0,0-9,9c0,6,3.5,9.7,16.4,20.2l.6.5.6-.5C38.5,28.7,42,25,42,19A9,9,0,0,0,33,10ZM25,37.1C13.2,27.5,10,24.1,10,19a7,7,0,0,1,7-7c3.5,0,5.4,2.1,6.9,3.8L25,17.1l1.1-1.3C27.6,14.1,29.5,12,33,12a7,7,0,0,1,7,7C40,24.1,36.8,27.5,25,37.1Z" transform="translate(-8 -10)" style="fill:#e82323"/><path d="M40,19c0,5.1-3.2,8.5-15,18.1C13.2,27.5,10,24.1,10,19a7,7,0,0,1,7-7c3.5,0,5.4,2.1,6.9,3.8L25,17.1l1.1-1.3C27.6,14.1,29.5,12,33,12A7,7,0,0,1,40,19Z" transform="translate(-8 -10)" style="fill:#e82323"/></svg>